<?xml version="1.0" encoding="UTF-8" standalone="no"?>
<!-- Generator: Adobe Illustrator 19.0.0, SVG Export Plug-In . SVG Version: 6.00 Build 0)  -->

<svg
   xmlns:dc="http://purl.org/dc/elements/1.1/"
   xmlns:cc="http://creativecommons.org/ns#"
   xmlns:rdf="http://www.w3.org/1999/02/22-rdf-syntax-ns#"
   xmlns:svg="http://www.w3.org/2000/svg"
   xmlns="http://www.w3.org/2000/svg"
   xmlns:sodipodi="http://sodipodi.sourceforge.net/DTD/sodipodi-0.dtd"
   xmlns:inkscape="http://www.inkscape.org/namespaces/inkscape"
   version="1.1"
   id="Layer_1"
   x="0px"
   y="0px"
   viewBox="0 0 512 302.54401"
   xml:space="preserve"
   sodipodi:docname="couch.svg"
   width="512"
   height="302.54401"
   inkscape:version="0.92.4 (5da689c313, 2019-01-14)"><metadata
   id="metadata53"><rdf:RDF><cc:Work
       rdf:about=""><dc:format>image/svg+xml</dc:format><dc:type
         rdf:resource="http://purl.org/dc/dcmitype/StillImage" /></cc:Work></rdf:RDF></metadata><defs
   id="defs51" /><sodipodi:namedview
   pagecolor="#ffffff"
   bordercolor="#666666"
   borderopacity="1"
   objecttolerance="10"
   gridtolerance="10"
   guidetolerance="10"
   inkscape:pageopacity="0"
   inkscape:pageshadow="2"
   inkscape:window-width="1920"
   inkscape:window-height="1017"
   id="namedview49"
   showgrid="false"
   inkscape:zoom="0.921875"
   inkscape:cx="526.43928"
   inkscape:cy="35.239734"
   inkscape:window-x="-8"
   inkscape:window-y="-8"
   inkscape:window-maximized="1"
   inkscape:current-layer="Layer_1" />
<polygon
   style="fill:#a43700"
   points="235.102,302.033 256,407.272 444.641,407.272 465.539,365.101 444.641,322.931 "
   id="polygon2"
   transform="translate(0,-104.728)" />
<polygon
   style="fill:#da6a1f"
   points="67.359,407.272 256,407.272 256,302.033 67.359,322.931 46.461,365.101 "
   id="polygon4"
   transform="translate(0,-104.728)" />
<path
   style="fill:#a43700"
   d="M 478.32,35.81 C 478.32,16.033 462.288,0 442.51,0 H 256 L 235.102,191.213 478.32,170.315 Z"
   id="path6"
   inkscape:connector-curvature="0" />
<path
   style="fill:#da6a1f"
   d="M 69.489,0 C 49.712,0 33.679,16.032 33.679,35.81 V 170.317 L 256,191.214 V 0 Z"
   id="path8"
   inkscape:connector-curvature="0" />
<polygon
   style="fill:#723900"
   points="235.102,298.987 256,322.931 478.32,322.931 478.32,275.043 256,275.043 "
   id="polygon10"
   transform="translate(0,-104.728)" />
<rect
   x="33.676998"
   y="170.32001"
   style="fill:#a43700"
   width="222.323"
   height="47.887001"
   id="rect12" />
<path
   style="fill:#ff9933"
   d="M 67.359,302.544 H 0 V 154.93 c 0,-10.553 8.555,-19.108 19.108,-19.108 h 29.143 c 10.553,0 19.108,8.555 19.108,19.108 0,0 0,147.614 0,147.614 z"
   id="path14"
   inkscape:connector-curvature="0" />
<path
   style="fill:#da6a1f"
   d="M 512,302.544 H 444.641 V 154.93 c 0,-10.553 8.555,-19.108 19.108,-19.108 h 29.143 c 10.553,0 19.108,8.555 19.108,19.108 z"
   id="path16"
   inkscape:connector-curvature="0" />
<g
   id="g18"
   transform="translate(0,-104.728)">
</g>
<g
   id="g20"
   transform="translate(0,-104.728)">
</g>
<g
   id="g22"
   transform="translate(0,-104.728)">
</g>
<g
   id="g24"
   transform="translate(0,-104.728)">
</g>
<g
   id="g26"
   transform="translate(0,-104.728)">
</g>
<g
   id="g28"
   transform="translate(0,-104.728)">
</g>
<g
   id="g30"
   transform="translate(0,-104.728)">
</g>
<g
   id="g32"
   transform="translate(0,-104.728)">
</g>
<g
   id="g34"
   transform="translate(0,-104.728)">
</g>
<g
   id="g36"
   transform="translate(0,-104.728)">
</g>
<g
   id="g38"
   transform="translate(0,-104.728)">
</g>
<g
   id="g40"
   transform="translate(0,-104.728)">
</g>
<g
   id="g42"
   transform="translate(0,-104.728)">
</g>
<g
   id="g44"
   transform="translate(0,-104.728)">
</g>
<g
   id="g46"
   transform="translate(0,-104.728)">
</g>
</svg>