<?xml version="1.0" encoding="UTF-8" standalone="no"?>
<!-- Generator: Adobe Illustrator 19.0.0, SVG Export Plug-In . SVG Version: 6.00 Build 0)  -->

<svg
   xmlns:dc="http://purl.org/dc/elements/1.1/"
   xmlns:cc="http://creativecommons.org/ns#"
   xmlns:rdf="http://www.w3.org/1999/02/22-rdf-syntax-ns#"
   xmlns:svg="http://www.w3.org/2000/svg"
   xmlns="http://www.w3.org/2000/svg"
   xmlns:sodipodi="http://sodipodi.sourceforge.net/DTD/sodipodi-0.dtd"
   xmlns:inkscape="http://www.inkscape.org/namespaces/inkscape"
   version="1.1"
   id="Layer_1"
   x="0px"
   y="0px"
   viewBox="0 0 427.56239 490.335"
   xml:space="preserve"
   sodipodi:docname="plant.svg"
   width="427.56238"
   height="490.33499"
   inkscape:version="0.92.4 (5da689c313, 2019-01-14)"><metadata
   id="metadata57"><rdf:RDF><cc:Work
       rdf:about=""><dc:format>image/svg+xml</dc:format><dc:type
         rdf:resource="http://purl.org/dc/dcmitype/StillImage" /></cc:Work></rdf:RDF></metadata><defs
   id="defs55" /><sodipodi:namedview
   pagecolor="#ffffff"
   bordercolor="#666666"
   borderopacity="1"
   objecttolerance="10"
   gridtolerance="10"
   guidetolerance="10"
   inkscape:pageopacity="0"
   inkscape:pageshadow="2"
   inkscape:window-width="716"
   inkscape:window-height="480"
   id="namedview53"
   showgrid="false"
   inkscape:zoom="0.48130361"
   inkscape:cx="213.78168"
   inkscape:cy="245.1675"
   inkscape:window-x="0"
   inkscape:window-y="0"
   inkscape:window-maximized="0"
   inkscape:current-layer="Layer_1" />
<g
   id="g20"
   transform="translate(-31.385812)">
	<path
   style="fill:#91dc5a"
   d="M 245.168,116.773 V 0 l -9.516,5.148 c -46.067,24.921 -73.57,66.65 -73.57,111.625 0,41.446 23.37,80.123 63.086,105.443 V 116.773 Z"
   id="path2"
   inkscape:connector-curvature="0" />
	<path
   style="fill:#6dc82a"
   d="m 265.168,116.773 v 105.443 c 39.716,-25.319 63.086,-63.997 63.086,-105.443 0,-44.975 -27.503,-86.704 -73.57,-111.625 L 245.168,0 v 116.773 z"
   id="path4"
   inkscape:connector-curvature="0" />
	<path
   style="fill:#91dc5a"
   d="m 372.786,238.221 85.608,-50.888 -9.288,-5.55 c -20.011,-11.957 -41.657,-18.277 -62.599,-18.277 -17.854,0 -34.414,4.462 -49.216,13.261 -29.396,17.474 -47.198,49.969 -48.988,88.406 l 74.263,-44.144 z"
   id="path6"
   inkscape:connector-curvature="0" />
	<path
   style="fill:#6dc82a"
   d="m 458.831,198.143 -0.438,-10.811 -85.608,50.888 10.219,17.192 -74.251,44.137 c 16.888,8.184 34.602,12.476 51.84,12.476 17.854,0 34.415,-4.462 49.217,-13.261 32.464,-19.297 50.789,-56.912 49.021,-100.621 z"
   id="path8"
   inkscape:connector-curvature="0" />
	<path
   style="fill:#6dc82a"
   d="m 117.549,238.221 -85.608,-50.888 -0.438,10.811 c -1.768,43.709 16.557,81.324 49.021,100.622 14.803,8.8 31.362,13.261 49.217,13.261 17.238,0 34.952,-4.292 51.84,-12.476 L 107.33,255.414 Z"
   id="path10"
   inkscape:connector-curvature="0" />
	<path
   style="fill:#91dc5a"
   d="m 127.769,221.029 74.263,44.144 c -1.789,-38.438 -19.592,-70.932 -48.988,-88.406 -14.803,-8.8 -31.362,-13.261 -49.216,-13.261 -20.941,0 -42.588,6.32 -62.599,18.277 l -9.288,5.55 85.608,50.888 z"
   id="path12"
   inkscape:connector-curvature="0" />
	<polygon
   style="fill:#00665a"
   points="288.304,265.173 265.168,278.926 265.168,222.215 265.168,116.773 245.168,116.773 225.168,116.773 225.168,222.215 225.168,278.926 202.032,265.173 127.769,221.029 117.549,238.221 107.33,255.413 181.582,299.55 225.168,325.459 225.168,354.537 245.168,354.537 265.168,354.537 265.168,325.459 308.754,299.55 383.005,255.413 372.786,238.221 362.567,221.029 "
   id="polygon14" />
	<polygon
   style="fill:#ff9811"
   points="165.56,490.335 245.168,490.335 245.168,354.537 225.168,354.537 152.024,354.537 "
   id="polygon16" />
	<polygon
   style="fill:#ff7956"
   points="338.311,354.537 265.168,354.537 245.168,354.537 245.168,490.335 324.775,490.335 "
   id="polygon18" />
</g>
<g
   id="g22"
   transform="translate(-31.385812)">
</g>
<g
   id="g24"
   transform="translate(-31.385812)">
</g>
<g
   id="g26"
   transform="translate(-31.385812)">
</g>
<g
   id="g28"
   transform="translate(-31.385812)">
</g>
<g
   id="g30"
   transform="translate(-31.385812)">
</g>
<g
   id="g32"
   transform="translate(-31.385812)">
</g>
<g
   id="g34"
   transform="translate(-31.385812)">
</g>
<g
   id="g36"
   transform="translate(-31.385812)">
</g>
<g
   id="g38"
   transform="translate(-31.385812)">
</g>
<g
   id="g40"
   transform="translate(-31.385812)">
</g>
<g
   id="g42"
   transform="translate(-31.385812)">
</g>
<g
   id="g44"
   transform="translate(-31.385812)">
</g>
<g
   id="g46"
   transform="translate(-31.385812)">
</g>
<g
   id="g48"
   transform="translate(-31.385812)">
</g>
<g
   id="g50"
   transform="translate(-31.385812)">
</g>
</svg>